<?xml version="1.0" standalone="no"?>
<!DOCTYPE svg PUBLIC "-//W3C//DTD SVG 20010904//EN"
 "http://www.w3.org/TR/2001/REC-SVG-20010904/DTD/svg10.dtd">
<svg version="1.0" xmlns="http://www.w3.org/2000/svg"
 width="512.000000pt" height="512.000000pt" viewBox="0 0 512.000000 512.000000"
 preserveAspectRatio="xMidYMid meet">

<g transform="translate(0.000000,512.000000) scale(0.100000,-0.100000)"
fill="#000000" stroke="none">
<path d="M2116 4944 c-183 -44 -361 -187 -443 -357 -70 -143 -85 -259 -58
-465 9 -74 15 -135 13 -137 -2 -2 -35 36 -73 83 -69 85 -71 87 -114 87 -71 0
-74 -9 -121 -340 -23 -159 -45 -299 -49 -311 -5 -11 -61 -50 -127 -88 -66 -38
-161 -93 -212 -123 l-93 -55 22 -34 c12 -19 20 -36 18 -38 -2 -2 -37 -22 -77
-45 -77 -45 -93 -45 -107 0 -4 10 -11 19 -17 19 -18 0 -482 -271 -500 -292
-10 -11 -18 -33 -18 -48 0 -51 26 -67 245 -146 254 -91 323 -121 438 -186 118
-67 230 -152 334 -251 86 -83 223 -243 222 -262 0 -5 -169 -109 -375 -230
-207 -121 -393 -235 -414 -252 -49 -42 -94 -114 -114 -182 -14 -47 -16 -128
-16 -568 l0 -514 25 -24 24 -25 2031 0 2031 0 24 25 25 24 0 296 0 295 -40 0
-40 0 0 80 0 80 40 0 40 0 0 138 c0 156 -13 217 -62 295 -17 26 -47 62 -68 80
-21 17 -207 131 -414 252 -206 121 -375 224 -376 228 0 15 93 130 175 216 211
220 393 329 797 477 146 53 240 92 251 105 19 24 22 61 7 89 -5 10 -253 159
-551 331 -343 199 -544 321 -550 334 -4 11 -26 151 -49 310 -47 331 -50 340
-121 340 -43 0 -45 -2 -114 -87 -38 -48 -71 -83 -73 -78 -2 4 4 61 13 126 28
218 15 319 -61 474 -87 176 -256 311 -444 355 -92 21 -795 20 -884 -1z m155
-887 c33 -18 68 -55 139 -148 105 -136 133 -158 177 -137 15 7 70 69 123 137
119 156 143 171 271 171 95 0 130 -10 154 -46 8 -12 56 -177 106 -366 96 -362
106 -421 80 -516 -7 -24 -109 -251 -227 -505 -187 -402 -220 -467 -258 -504
-24 -23 -60 -46 -82 -52 -51 -14 -337 -14 -388 0 -22 6 -58 29 -82 52 -38 37
-71 102 -258 504 -118 254 -220 481 -227 505 -26 95 -16 154 80 517 51 189 98
353 106 364 26 37 56 46 151 47 76 0 98 -4 135 -23z m-690 -279 c112 -138 118
-160 79 -311 -16 -62 -32 -140 -35 -174 -4 -35 -10 -63 -14 -63 -22 0 -131 83
-150 114 -35 56 -35 94 -2 319 17 114 31 209 31 212 0 13 15 -3 91 -97z m2080
-119 c17 -118 28 -229 25 -247 -8 -55 -46 -102 -117 -148 -37 -24 -69 -44 -71
-44 -2 0 -4 30 -5 67 -2 36 -16 117 -32 179 -40 152 -35 174 78 313 46 56 85
101 87 98 2 -2 18 -100 35 -218z m-1421 -2299 l80 0 0 289 0 290 32 -10 c18
-5 112 -9 208 -9 96 0 190 4 208 9 l32 10 0 -290 0 -289 80 0 80 0 2 327 3
327 145 -203 c80 -112 144 -209 143 -215 -3 -11 -339 -1226 -349 -1258 -5 -17
-30 -18 -344 -18 l-339 0 -19 62 c-10 35 -94 320 -186 634 l-168 570 153 214
154 213 3 -326 2 -327 80 0z"/>
<path d="M2160 3480 l0 -120 80 0 80 0 0 120 0 120 -80 0 -80 0 0 -120z"/>
<path d="M2800 3480 l0 -120 80 0 80 0 0 120 0 120 -80 0 -80 0 0 -120z"/>
<path d="M2160 2720 l0 -80 40 0 40 0 0 -80 0 -80 80 0 80 0 0 80 0 80 160 0
160 0 0 -80 0 -80 80 0 80 0 0 80 0 80 40 0 40 0 0 80 0 80 -400 0 -400 0 0
-80z"/>
<path d="M2480 1160 l0 -360 80 0 80 0 0 360 0 360 -80 0 -80 0 0 -360z"/>
</g>
</svg>
